HIERARCHY
ROOT Hips
{
	OFFSET 0.00000 0.00000 0.00000
	CHANNELS 6 Xposition Yposition Zposition Zrotation Yrotation Xrotation 
	JOINT LHipJoint
	{
		OFFSET 0 0 0
		CHANNELS 3 Zrotation Yrotation Xrotation
		JOINT LeftHip
		{
			OFFSET 2.36090 -1.39315 1.24752
			CHANNELS 3 Zrotation Yrotation Xrotation
			JOINT LeftKnee
			{
				OFFSET 2.06810 -5.68207 0.00000
				CHANNELS 3 Zrotation Yrotation Xrotation
				JOINT LeftAnkle
				{
					OFFSET 2.46631 -6.77613 0.00000
					CHANNELS 3 Zrotation Yrotation Xrotation
					JOINT LeftToe
					{
						OFFSET 0.26031 -0.71520 1.99545
						CHANNELS 3 Zrotation Yrotation Xrotation
						End Site
						{
							OFFSET 0.00000 -0.00000 1.05957
						}
					}
				}
			}
		}
	}
	JOINT RHipJoint
	{
		OFFSET 0 0 0
		CHANNELS 3 Zrotation Yrotation Xrotation
		JOINT RightHip
		{
			OFFSET -2.25243 -1.39315 1.24752
			CHANNELS 3 Zrotation Yrotation Xrotation
			JOINT RightKnee
			{
				OFFSET -2.17343 -5.97145 0.00000
				CHANNELS 3 Zrotation Yrotation Xrotation
				JOINT RightAnkle
				{
					OFFSET -2.52372 -6.93386 0.00000
					CHANNELS 3 Zrotation Yrotation Xrotation
					JOINT RightToe
					{
						OFFSET -0.22538 -0.61923 2.11447
						CHANNELS 3 Zrotation Yrotation Xrotation
						End Site
						{
							OFFSET -0.00000 -0.00000 1.10506
						}
					}
				}
			}
		}
	}
	JOINT lowerback
	{
		OFFSET 0 0 0
		CHANNELS 3 Zrotation Yrotation Xrotation
		JOINT Chest
		{
			OFFSET 0.01594 2.13103 0.08007
			CHANNELS 3 Zrotation Yrotation Xrotation
			JOINT Chest2
			{
				OFFSET 0.01393 2.09723 0.18338
				CHANNELS 3 Zrotation Yrotation Xrotation
				JOINT lowerneck
				{
					OFFSET 0 0 0
					CHANNELS 3 Zrotation Yrotation Xrotation
					JOINT Neck
					{
						OFFSET 0.05351 1.38915 0.32494
						CHANNELS 3 Zrotation Yrotation Xrotation
						JOINT Head
						{
							OFFSET 0.00711 1.45992 -0.21666
							CHANNELS 3 Zrotation Yrotation Xrotation
							End Site
							{
								OFFSET -0.00433 1.47702 -0.11056
							}
						}
					}
				}
				JOINT LeftCollar
				{
					OFFSET 0 0 0
					CHANNELS 3 Zrotation Yrotation Xrotation
					JOINT LeftShoulder
					{
						OFFSET 2.87198 0.92249 0.11132
CHANNELS 3 Zrotation Xrotation Yrotation
						JOINT LeftElbow
						{
OFFSET 0 -5.527310 0.000000
CHANNELS 3 Zrotation Xrotation Yrotation
							JOINT LeftWrist
							{
OFFSET 0 -3.110590 0.000000
CHANNELS 3 Zrotation Xrotation Yrotation
								JOINT lhand
								{
									OFFSET 0 0 0
CHANNELS 3 Zrotation Xrotation Yrotation
									JOINT LFingers
									{
OFFSET 0 -0.419630 0.000000
CHANNELS 3 Zrotation Xrotation Yrotation
										End Site
										{
OFFSET 0 -0.338310 0.000000
										}
									}
								}
								JOINT LThumb
								{
OFFSET 0 0.000000 0.000000
CHANNELS 3 Zrotation Xrotation Yrotation
									End Site
									{
OFFSET 0 -0.343480 0.343480
									}
								}
							}
						}
					}
				}
				JOINT RightCollar
				{
					OFFSET 0 0 0
					CHANNELS 3 Zrotation Yrotation Xrotation
					JOINT RightShoulder
					{
						OFFSET -2.94710 0.68072 0.32187
CHANNELS 3 Zrotation Xrotation Yrotation
						JOINT RightElbow
						{
OFFSET 0 -5.253960 -0.000000
CHANNELS 3 Zrotation Xrotation Yrotation
							JOINT RightWrist
							{
OFFSET 0 -3.105670 0.000000
CHANNELS 3 Zrotation Xrotation Yrotation
								JOINT rhand
								{
									OFFSET 0 0 0
CHANNELS 3 Zrotation Xrotation Yrotation
									JOINT RFingers
									{
OFFSET 0 -0.498680 0.000000
CHANNELS 3 Zrotation Xrotation Yrotation
										End Site
										{
OFFSET 0 -0.402040 0.000000
										}
									}
								}
								JOINT RThumb
								{
OFFSET 0 0.000000 0.000000
CHANNELS 3 Zrotation Xrotation Yrotation
									End Site
									{
OFFSET 0 -0.408180 0.408180
									}
								}
							}
						}
					}
				}
			}
		}
	}
}
MOTION
Frames: 7
Frame Time: 0.008333333333333333
6.939595 5.354335 20.441206 -180.786856 6.056396 -129.047529 0.000000 0.000000 0.000000 -14.034684 11.056208 170.239362 38.395564 7.987732 157.322883 -0.663647 -16.060155 -1.993133 0.195836 -2.849825 -7.860937 0.000000 0.000000 0.000000 19.687747 -20.318132 172.855035 -37.561540 -9.724826 151.909646 0.365548 18.716062 -9.635068 -0.008747 0.603472 -1.658319 8.474240 0.936463 0.632051 4.388699 1.644489 0.431903 -0.217134 0.983051 0.178767 1.190594 6.692788 -24.481582 -8.644896 10.114748 4.398220 -1.746775 4.529434 5.709165 0.000000 0.000000 0.000000 4.810219 -28.301819 -52.314061 60.889617 -56.541906 35.082461 -37.117319 -89.742697 32.728325 0.000000 0.000000 0.000000 -7.125000 0.000000 0.000000 -35.099722 -4.496835 -47.548689 0.000000 0.000000 0.000000 -6.648721 -57.276777 59.142783 -52.009269 -53.773719 -27.787208 -13.061317 -22.803969 38.747689 0.000000 0.000000 0.000000 7.125000 0.000000 0.000000 29.857840 67.192806 -16.543711
6.945219 5.403790 20.448735 -180.733865 5.969383 -128.664349 0.000000 0.000000 0.000000 -13.539821 10.673593 170.903871 38.326837 8.148616 156.833276 -0.611751 -15.861245 -2.708992 0.203070 -2.901609 -8.005095 0.000000 0.000000 0.000000 19.309272 -19.856436 173.496802 -37.494095 -9.848333 151.512742 0.286770 18.326202 -10.106547 -0.010006 0.645892 -1.774948 8.453770 0.962794 0.536531 4.396562 1.677424 0.323679 -0.197297 0.995733 0.121526 1.332925 6.789393 -24.668833 -8.773981 10.228663 4.159599 -1.792814 4.595936 5.679891 0.000000 0.000000 0.000000 4.881821 -28.266453 -52.270061 61.405786 -56.672614 35.513385 -36.442771 -90.157532 32.853717 0.000000 0.000000 0.000000 -7.125000 0.000000 0.000000 -34.831647 -4.388965 -46.902956 0.000000 0.000000 0.000000 -6.748170 -57.220634 58.875255 -52.562859 -53.977674 -28.234296 -13.120064 -22.751527 38.964496 0.000000 0.000000 0.000000 7.125000 0.000000 0.000000 30.103648 67.391041 -16.823504
6.950924 5.456731 20.456961 -180.679013 5.874002 -128.285945 0.000000 0.000000 0.000000 -13.041771 10.300408 171.599168 38.254310 8.314406 156.326583 -0.560363 -15.686754 -3.419030 0.211311 -2.959545 -8.166257 0.000000 0.000000 0.000000 18.948999 -19.402325 174.176575 -37.422790 -9.976725 151.098370 0.211520 17.970342 -10.577895 -0.009972 0.645810 -1.774634 8.442585 0.985892 0.452587 4.398015 1.706869 0.220963 -0.189302 1.006694 0.063706 1.498271 6.892498 -24.879582 -8.917531 10.347663 3.912587 -1.845660 4.665147 5.653881 0.000000 0.000000 0.000000 4.950927 -28.247716 -52.224020 61.912502 -56.798073 35.937017 -35.737963 -90.576450 32.981592 0.000000 0.000000 0.000000 -7.125000 0.000000 0.000000 -34.549523 -4.284250 -46.238353 0.000000 0.000000 0.000000 -6.844224 -57.182534 58.631373 -53.089329 -54.167503 -28.660566 -13.252065 -22.627177 39.179943 0.000000 0.000000 0.000000 7.125000 0.000000 0.000000 30.272176 67.609939 -17.072412
6.956725 5.512792 20.465753 -180.621442 5.772620 -127.912412 0.000000 0.000000 0.000000 -12.544448 9.939489 172.319770 38.177975 8.484634 155.803652 -0.509490 -15.535608 -4.119826 0.219859 -3.018152 -8.329398 0.000000 0.000000 0.000000 18.601227 -18.950789 174.889617 -37.347746 -10.109468 150.667993 0.138874 17.642417 -11.049755 -0.008974 0.610992 -1.679056 8.439383 1.008478 0.377846 4.394711 1.736360 0.122053 -0.190764 1.017720 0.005031 1.678042 7.000697 -25.111565 -9.069061 10.471445 3.663595 -1.901973 4.736738 5.631900 0.000000 0.000000 0.000000 5.008328 -28.241000 -52.189039 62.401502 -56.916399 36.346436 -35.003165 -90.991193 33.118436 0.000000 0.000000 0.000000 -7.125000 0.000000 0.000000 -34.252174 -4.189376 -45.557701 0.000000 0.000000 0.000000 -6.937126 -57.143549 58.390639 -53.612378 -54.351946 -29.085206 -13.435968 -22.430269 39.391835 0.000000 0.000000 0.000000 7.125000 0.000000 0.000000 30.384016 67.841463 -17.296823
6.962686 5.571543 20.474768 -180.559800 5.672788 -127.536820 0.000000 0.000000 0.000000 -12.055172 9.594801 173.051694 38.097942 8.658847 155.265980 -0.458882 -15.403642 -4.807900 0.228379 -3.076137 -8.490799 0.000000 0.000000 0.000000 18.255026 -18.491072 175.627914 -37.268761 -10.246623 150.220840 0.068683 17.335595 -11.515898 -0.007030 0.538906 -1.480858 8.437712 1.034202 0.303721 4.386945 1.770118 0.022892 -0.197582 1.030771 -0.053814 1.861768 7.111831 -25.354670 -9.220749 10.598633 3.415176 -1.957994 4.810330 5.612299 0.000000 0.000000 0.000000 5.049710 -28.241352 -52.165509 62.871963 -57.027786 36.740842 -34.237295 -91.408329 33.260239 0.000000 0.000000 0.000000 -7.125000 0.000000 0.000000 -33.939620 -4.101624 -44.860049 0.000000 0.000000 0.000000 -6.987994 -57.023442 58.092044 -54.276683 -54.581011 -29.625662 -13.593751 -22.119995 39.647512 0.000000 0.000000 0.000000 7.125000 0.000000 0.000000 30.595684 68.100960 -17.602174
6.968816 5.632574 20.483783 -180.493088 5.580474 -127.152780 0.000000 0.000000 0.000000 -11.573500 9.262867 173.782181 38.012840 8.839057 154.706597 -0.407766 -15.277251 -5.476544 0.237574 -3.137079 -8.660733 0.000000 0.000000 0.000000 17.904431 -18.017332 176.377784 -37.185552 -10.388339 149.756115 0.001701 17.049639 -11.966919 -0.004325 0.423063 -1.162537 8.429959 1.064402 0.219881 4.374955 1.808522 -0.078888 -0.205245 1.046186 -0.109617 2.045494 7.226683 -25.606731 -9.369226 10.730973 3.168615 -2.011904 4.887048 5.594810 0.000000 0.000000 0.000000 5.073690 -28.246941 -52.151355 63.309733 -57.129205 37.108384 -33.439916 -91.812202 33.418092 0.000000 0.000000 0.000000 -7.125000 0.000000 0.000000 -33.609580 -4.032118 -44.149305 0.000000 0.000000 0.000000 -7.041904 -56.917696 57.805276 -54.883124 -54.784480 -30.120587 -13.769274 -21.800683 39.868470 0.000000 0.000000 0.000000 7.125000 0.000000 0.000000 30.741547 68.336973 -17.852702
6.975204 5.695842 20.492540 -180.425518 5.498219 -126.758422 0.000000 0.000000 0.000000 -11.094320 8.934115 174.511379 37.921290 9.027693 154.117725 -0.355276 -15.141059 -6.123694 0.248059 -3.204812 -8.849667 0.000000 0.000000 0.000000 17.537157 -17.516338 177.135048 -37.096755 -10.536504 149.267575 -0.067688 16.746487 -12.429978 -0.002652 0.332755 -0.914373 8.410599 1.099245 0.124521 4.359526 1.851913 -0.184365 -0.209641 1.064009 -0.162668 2.225953 7.344028 -25.870913 -9.516500 10.868300 2.927900 -2.063665 4.966087 5.581104 0.000000 0.000000 0.000000 5.077035 -28.260440 -52.143650 63.701333 -57.218071 37.437409 -32.603933 -92.195097 33.598729 0.000000 0.000000 0.000000 -7.125000 0.000000 0.000000 -33.258045 -3.986685 -43.422483 0.000000 0.000000 0.000000 -7.092547 -56.807737 57.513608 -55.453111 -54.970926 -30.586795 -13.924936 -21.493408 40.055296 0.000000 0.000000 0.000000 7.125000 0.000000 0.000000 30.862219 68.538940 -18.065399
